<?xml version="1.0" encoding="utf-8" standalone="no"?>
<!DOCTYPE svg PUBLIC "-//W3C//DTD SVG 1.1//EN"
  "http://www.w3.org/Graphics/SVG/1.1/DTD/svg11.dtd">
<svg xmlns:xlink="http://www.w3.org/1999/xlink" width="720pt" height="432pt" viewBox="0 0 720 432" xmlns="http://www.w3.org/2000/svg" version="1.1">
 <metadata>
  <rdf:RDF xmlns:dc="http://purl.org/dc/elements/1.1/" xmlns:cc="http://creativecommons.org/ns#" xmlns:rdf="http://www.w3.org/1999/02/22-rdf-syntax-ns#">
   <cc:Work>
    <dc:type rdf:resource="http://purl.org/dc/dcmitype/StillImage"/>
    <dc:date>2025-06-03T06:19:36.648569</dc:date>
    <dc:format>image/svg+xml</dc:format>
    <dc:creator>
     <cc:Agent>
      <dc:title>Matplotlib v3.10.3, https://matplotlib.org/</dc:title>
     </cc:Agent>
    </dc:creator>
   </cc:Work>
  </rdf:RDF>
 </metadata>
 <defs>
  <style type="text/css">*{stroke-linejoin: round; stroke-linecap: butt}</style>
 </defs>
 <g id="figure_1">
  <g id="patch_1">
   <path d="M 0 432 
L 720 432 
L 720 0 
L 0 0 
z
" style="fill: #ffffff"/>
  </g>
  <g id="axes_1">
   <g id="patch_2">
    <path d="M 53.57 381.04 
L 694.305 381.04 
L 694.305 36.69 
L 53.57 36.69 
z
" style="fill: #ffffff"/>
   </g>
   <g id="matplotlib.axis_1">
    <g id="xtick_1">
     <g id="line2d_1">
      <path d="M 53.57 381.04 
L 53.57 36.69 
" clip-path="url(#paab17aeeeb)" style="fill: none; stroke-dasharray: 0.8,1.32; stroke-dashoffset: 0; stroke: #b0b0b0; stroke-width: 0.8"/>
     </g>
     <g id="line2d_2">
      <defs>
       <path id="m176d61935d" d="M 0 0 
L 0 3.5 
" style="stroke: #000000; stroke-width: 0.8"/>
      </defs>
      <g>
       <use xlink:href="#m176d61935d" x="53.57" y="381.04" style="stroke: #000000; stroke-width: 0.8"/>
      </g>
     </g>
     <g id="text_1">
      <!-- 100 -->
      <g transform="translate(44.02625 395.638438) scale(0.1 -0.1)">
       <defs>
        <path id="DejaVuSans-31" d="M 794 531 
L 1825 531 
L 1825 4091 
L 703 3866 
L 703 4441 
L 1819 4666 
L 2450 4666 
L 2450 531 
L 3481 531 
L 3481 0 
L 794 0 
L 794 531 
z
" transform="scale(0.015625)"/>
        <path id="DejaVuSans-30" d="M 2034 4250 
Q 1547 4250 1301 3770 
Q 1056 3291 1056 2328 
Q 1056 1369 1301 889 
Q 1547 409 2034 409 
Q 2525 409 2770 889 
Q 3016 1369 3016 2328 
Q 3016 3291 2770 3770 
Q 2525 4250 2034 4250 
z
M 2034 4750 
Q 2819 4750 3233 4129 
Q 3647 3509 3647 2328 
Q 3647 1150 3233 529 
Q 2819 -91 2034 -91 
Q 1250 -91 836 529 
Q 422 1150 422 2328 
Q 422 3509 836 4129 
Q 1250 4750 2034 4750 
z
" transform="scale(0.015625)"/>
       </defs>
       <use xlink:href="#DejaVuSans-31"/>
       <use xlink:href="#DejaVuSans-30" transform="translate(63.623047 0)"/>
       <use xlink:href="#DejaVuSans-30" transform="translate(127.246094 0)"/>
      </g>
     </g>
    </g>
    <g id="xtick_2">
     <g id="line2d_3">
      <path d="M 133.661875 381.04 
L 133.661875 36.69 
" clip-path="url(#paab17aeeeb)" style="fill: none; stroke-dasharray: 0.8,1.32; stroke-dashoffset: 0; stroke: #b0b0b0; stroke-width: 0.8"/>
     </g>
     <g id="line2d_4">
      <g>
       <use xlink:href="#m176d61935d" x="133.661875" y="381.04" style="stroke: #000000; stroke-width: 0.8"/>
      </g>
     </g>
     <g id="text_2">
      <!-- 120 -->
      <g transform="translate(124.118125 395.638438) scale(0.1 -0.1)">
       <defs>
        <path id="DejaVuSans-32" d="M 1228 531 
L 3431 531 
L 3431 0 
L 469 0 
L 469 531 
Q 828 903 1448 1529 
Q 2069 2156 2228 2338 
Q 2531 2678 2651 2914 
Q 2772 3150 2772 3378 
Q 2772 3750 2511 3984 
Q 2250 4219 1831 4219 
Q 1534 4219 1204 4116 
Q 875 4013 500 3803 
L 500 4441 
Q 881 4594 1212 4672 
Q 1544 4750 1819 4750 
Q 2544 4750 2975 4387 
Q 3406 4025 3406 3419 
Q 3406 3131 3298 2873 
Q 3191 2616 2906 2266 
Q 2828 2175 2409 1742 
Q 1991 1309 1228 531 
z
" transform="scale(0.015625)"/>
       </defs>
       <use xlink:href="#DejaVuSans-31"/>
       <use xlink:href="#DejaVuSans-32" transform="translate(63.623047 0)"/>
       <use xlink:href="#DejaVuSans-30" transform="translate(127.246094 0)"/>
      </g>
     </g>
    </g>
    <g id="xtick_3">
     <g id="line2d_5">
      <path d="M 213.75375 381.04 
L 213.75375 36.69 
" clip-path="url(#paab17aeeeb)" style="fill: none; stroke-dasharray: 0.8,1.32; stroke-dashoffset: 0; stroke: #b0b0b0; stroke-width: 0.8"/>
     </g>
     <g id="line2d_6">
      <g>
       <use xlink:href="#m176d61935d" x="213.75375" y="381.04" style="stroke: #000000; stroke-width: 0.8"/>
      </g>
     </g>
     <g id="text_3">
      <!-- 140 -->
      <g transform="translate(204.21 395.638438) scale(0.1 -0.1)">
       <defs>
        <path id="DejaVuSans-34" d="M 2419 4116 
L 825 1625 
L 2419 1625 
L 2419 4116 
z
M 2253 4666 
L 3047 4666 
L 3047 1625 
L 3713 1625 
L 3713 1100 
L 3047 1100 
L 3047 0 
L 2419 0 
L 2419 1100 
L 313 1100 
L 313 1709 
L 2253 4666 
z
" transform="scale(0.015625)"/>
       </defs>
       <use xlink:href="#DejaVuSans-31"/>
       <use xlink:href="#DejaVuSans-34" transform="translate(63.623047 0)"/>
       <use xlink:href="#DejaVuSans-30" transform="translate(127.246094 0)"/>
      </g>
     </g>
    </g>
    <g id="xtick_4">
     <g id="line2d_7">
      <path d="M 293.845625 381.04 
L 293.845625 36.69 
" clip-path="url(#paab17aeeeb)" style="fill: none; stroke-dasharray: 0.8,1.32; stroke-dashoffset: 0; stroke: #b0b0b0; stroke-width: 0.8"/>
     </g>
     <g id="line2d_8">
      <g>
       <use xlink:href="#m176d61935d" x="293.845625" y="381.04" style="stroke: #000000; stroke-width: 0.8"/>
      </g>
     </g>
     <g id="text_4">
      <!-- 160 -->
      <g transform="translate(284.301875 395.638438) scale(0.1 -0.1)">
       <defs>
        <path id="DejaVuSans-36" d="M 2113 2584 
Q 1688 2584 1439 2293 
Q 1191 2003 1191 1497 
Q 1191 994 1439 701 
Q 1688 409 2113 409 
Q 2538 409 2786 701 
Q 3034 994 3034 1497 
Q 3034 2003 2786 2293 
Q 2538 2584 2113 2584 
z
M 3366 4563 
L 3366 3988 
Q 3128 4100 2886 4159 
Q 2644 4219 2406 4219 
Q 1781 4219 1451 3797 
Q 1122 3375 1075 2522 
Q 1259 2794 1537 2939 
Q 1816 3084 2150 3084 
Q 2853 3084 3261 2657 
Q 3669 2231 3669 1497 
Q 3669 778 3244 343 
Q 2819 -91 2113 -91 
Q 1303 -91 875 529 
Q 447 1150 447 2328 
Q 447 3434 972 4092 
Q 1497 4750 2381 4750 
Q 2619 4750 2861 4703 
Q 3103 4656 3366 4563 
z
" transform="scale(0.015625)"/>
       </defs>
       <use xlink:href="#DejaVuSans-31"/>
       <use xlink:href="#DejaVuSans-36" transform="translate(63.623047 0)"/>
       <use xlink:href="#DejaVuSans-30" transform="translate(127.246094 0)"/>
      </g>
     </g>
    </g>
    <g id="xtick_5">
     <g id="line2d_9">
      <path d="M 373.9375 381.04 
L 373.9375 36.69 
" clip-path="url(#paab17aeeeb)" style="fill: none; stroke-dasharray: 0.8,1.32; stroke-dashoffset: 0; stroke: #b0b0b0; stroke-width: 0.8"/>
     </g>
     <g id="line2d_10">
      <g>
       <use xlink:href="#m176d61935d" x="373.9375" y="381.04" style="stroke: #000000; stroke-width: 0.8"/>
      </g>
     </g>
     <g id="text_5">
      <!-- 180 -->
      <g transform="translate(364.39375 395.638438) scale(0.1 -0.1)">
       <defs>
        <path id="DejaVuSans-38" d="M 2034 2216 
Q 1584 2216 1326 1975 
Q 1069 1734 1069 1313 
Q 1069 891 1326 650 
Q 1584 409 2034 409 
Q 2484 409 2743 651 
Q 3003 894 3003 1313 
Q 3003 1734 2745 1975 
Q 2488 2216 2034 2216 
z
M 1403 2484 
Q 997 2584 770 2862 
Q 544 3141 544 3541 
Q 544 4100 942 4425 
Q 1341 4750 2034 4750 
Q 2731 4750 3128 4425 
Q 3525 4100 3525 3541 
Q 3525 3141 3298 2862 
Q 3072 2584 2669 2484 
Q 3125 2378 3379 2068 
Q 3634 1759 3634 1313 
Q 3634 634 3220 271 
Q 2806 -91 2034 -91 
Q 1263 -91 848 271 
Q 434 634 434 1313 
Q 434 1759 690 2068 
Q 947 2378 1403 2484 
z
M 1172 3481 
Q 1172 3119 1398 2916 
Q 1625 2713 2034 2713 
Q 2441 2713 2670 2916 
Q 2900 3119 2900 3481 
Q 2900 3844 2670 4047 
Q 2441 4250 2034 4250 
Q 1625 4250 1398 4047 
Q 1172 3844 1172 3481 
z
" transform="scale(0.015625)"/>
       </defs>
       <use xlink:href="#DejaVuSans-31"/>
       <use xlink:href="#DejaVuSans-38" transform="translate(63.623047 0)"/>
       <use xlink:href="#DejaVuSans-30" transform="translate(127.246094 0)"/>
      </g>
     </g>
    </g>
    <g id="xtick_6">
     <g id="line2d_11">
      <path d="M 454.029375 381.04 
L 454.029375 36.69 
" clip-path="url(#paab17aeeeb)" style="fill: none; stroke-dasharray: 0.8,1.32; stroke-dashoffset: 0; stroke: #b0b0b0; stroke-width: 0.8"/>
     </g>
     <g id="line2d_12">
      <g>
       <use xlink:href="#m176d61935d" x="454.029375" y="381.04" style="stroke: #000000; stroke-width: 0.8"/>
      </g>
     </g>
     <g id="text_6">
      <!-- 200 -->
      <g transform="translate(444.485625 395.638438) scale(0.1 -0.1)">
       <use xlink:href="#DejaVuSans-32"/>
       <use xlink:href="#DejaVuSans-30" transform="translate(63.623047 0)"/>
       <use xlink:href="#DejaVuSans-30" transform="translate(127.246094 0)"/>
      </g>
     </g>
    </g>
    <g id="xtick_7">
     <g id="line2d_13">
      <path d="M 534.12125 381.04 
L 534.12125 36.69 
" clip-path="url(#paab17aeeeb)" style="fill: none; stroke-dasharray: 0.8,1.32; stroke-dashoffset: 0; stroke: #b0b0b0; stroke-width: 0.8"/>
     </g>
     <g id="line2d_14">
      <g>
       <use xlink:href="#m176d61935d" x="534.12125" y="381.04" style="stroke: #000000; stroke-width: 0.8"/>
      </g>
     </g>
     <g id="text_7">
      <!-- 220 -->
      <g transform="translate(524.5775 395.638438) scale(0.1 -0.1)">
       <use xlink:href="#DejaVuSans-32"/>
       <use xlink:href="#DejaVuSans-32" transform="translate(63.623047 0)"/>
       <use xlink:href="#DejaVuSans-30" transform="translate(127.246094 0)"/>
      </g>
     </g>
    </g>
    <g id="xtick_8">
     <g id="line2d_15">
      <path d="M 614.213125 381.04 
L 614.213125 36.69 
" clip-path="url(#paab17aeeeb)" style="fill: none; stroke-dasharray: 0.8,1.32; stroke-dashoffset: 0; stroke: #b0b0b0; stroke-width: 0.8"/>
     </g>
     <g id="line2d_16">
      <g>
       <use xlink:href="#m176d61935d" x="614.213125" y="381.04" style="stroke: #000000; stroke-width: 0.8"/>
      </g>
     </g>
     <g id="text_8">
      <!-- 240 -->
      <g transform="translate(604.669375 395.638438) scale(0.1 -0.1)">
       <use xlink:href="#DejaVuSans-32"/>
       <use xlink:href="#DejaVuSans-34" transform="translate(63.623047 0)"/>
       <use xlink:href="#DejaVuSans-30" transform="translate(127.246094 0)"/>
      </g>
     </g>
    </g>
    <g id="xtick_9">
     <g id="line2d_17">
      <path d="M 694.305 381.04 
L 694.305 36.69 
" clip-path="url(#paab17aeeeb)" style="fill: none; stroke-dasharray: 0.8,1.32; stroke-dashoffset: 0; stroke: #b0b0b0; stroke-width: 0.8"/>
     </g>
     <g id="line2d_18">
      <g>
       <use xlink:href="#m176d61935d" x="694.305" y="381.04" style="stroke: #000000; stroke-width: 0.8"/>
      </g>
     </g>
     <g id="text_9">
      <!-- 260 -->
      <g transform="translate(684.76125 395.638438) scale(0.1 -0.1)">
       <use xlink:href="#DejaVuSans-32"/>
       <use xlink:href="#DejaVuSans-36" transform="translate(63.623047 0)"/>
       <use xlink:href="#DejaVuSans-30" transform="translate(127.246094 0)"/>
      </g>
     </g>
    </g>
    <g id="text_10">
     <!-- Azimuth [°] -->
     <g transform="translate(337.596484 412.637656) scale(0.15 -0.15)">
      <defs>
       <path id="ArialMT-41" d="M -9 0 
L 1750 4581 
L 2403 4581 
L 4278 0 
L 3588 0 
L 3053 1388 
L 1138 1388 
L 634 0 
L -9 0 
z
M 1313 1881 
L 2866 1881 
L 2388 3150 
Q 2169 3728 2063 4100 
Q 1975 3659 1816 3225 
L 1313 1881 
z
" transform="scale(0.015625)"/>
       <path id="ArialMT-7a" d="M 125 0 
L 125 456 
L 2238 2881 
Q 1878 2863 1603 2863 
L 250 2863 
L 250 3319 
L 2963 3319 
L 2963 2947 
L 1166 841 
L 819 456 
Q 1197 484 1528 484 
L 3063 484 
L 3063 0 
L 125 0 
z
" transform="scale(0.015625)"/>
       <path id="ArialMT-69" d="M 425 3934 
L 425 4581 
L 988 4581 
L 988 3934 
L 425 3934 
z
M 425 0 
L 425 3319 
L 988 3319 
L 988 0 
L 425 0 
z
" transform="scale(0.015625)"/>
       <path id="ArialMT-6d" d="M 422 0 
L 422 3319 
L 925 3319 
L 925 2853 
Q 1081 3097 1340 3245 
Q 1600 3394 1931 3394 
Q 2300 3394 2536 3241 
Q 2772 3088 2869 2813 
Q 3263 3394 3894 3394 
Q 4388 3394 4653 3120 
Q 4919 2847 4919 2278 
L 4919 0 
L 4359 0 
L 4359 2091 
Q 4359 2428 4304 2576 
Q 4250 2725 4106 2815 
Q 3963 2906 3769 2906 
Q 3419 2906 3187 2673 
Q 2956 2441 2956 1928 
L 2956 0 
L 2394 0 
L 2394 2156 
Q 2394 2531 2256 2718 
Q 2119 2906 1806 2906 
Q 1569 2906 1367 2781 
Q 1166 2656 1075 2415 
Q 984 2175 984 1722 
L 984 0 
L 422 0 
z
" transform="scale(0.015625)"/>
       <path id="ArialMT-75" d="M 2597 0 
L 2597 488 
Q 2209 -75 1544 -75 
Q 1250 -75 995 37 
Q 741 150 617 320 
Q 494 491 444 738 
Q 409 903 409 1263 
L 409 3319 
L 972 3319 
L 972 1478 
Q 972 1038 1006 884 
Q 1059 663 1231 536 
Q 1403 409 1656 409 
Q 1909 409 2131 539 
Q 2353 669 2445 892 
Q 2538 1116 2538 1541 
L 2538 3319 
L 3100 3319 
L 3100 0 
L 2597 0 
z
" transform="scale(0.015625)"/>
       <path id="ArialMT-74" d="M 1650 503 
L 1731 6 
Q 1494 -44 1306 -44 
Q 1000 -44 831 53 
Q 663 150 594 308 
Q 525 466 525 972 
L 525 2881 
L 113 2881 
L 113 3319 
L 525 3319 
L 525 4141 
L 1084 4478 
L 1084 3319 
L 1650 3319 
L 1650 2881 
L 1084 2881 
L 1084 941 
Q 1084 700 1114 631 
Q 1144 563 1211 522 
Q 1278 481 1403 481 
Q 1497 481 1650 503 
z
" transform="scale(0.015625)"/>
       <path id="ArialMT-68" d="M 422 0 
L 422 4581 
L 984 4581 
L 984 2938 
Q 1378 3394 1978 3394 
Q 2347 3394 2619 3248 
Q 2891 3103 3008 2847 
Q 3125 2591 3125 2103 
L 3125 0 
L 2563 0 
L 2563 2103 
Q 2563 2525 2380 2717 
Q 2197 2909 1863 2909 
Q 1613 2909 1392 2779 
Q 1172 2650 1078 2428 
Q 984 2206 984 1816 
L 984 0 
L 422 0 
z
" transform="scale(0.015625)"/>
       <path id="ArialMT-20" transform="scale(0.015625)"/>
       <path id="ArialMT-5b" d="M 434 -1272 
L 434 4581 
L 1675 4581 
L 1675 4116 
L 997 4116 
L 997 -806 
L 1675 -806 
L 1675 -1272 
L 434 -1272 
z
" transform="scale(0.015625)"/>
       <path id="ArialMT-b0" d="M 400 3794 
Q 400 4153 654 4406 
Q 909 4659 1266 4659 
Q 1628 4659 1881 4406 
Q 2134 4153 2134 3794 
Q 2134 3434 1879 3179 
Q 1625 2925 1266 2925 
Q 909 2925 654 3178 
Q 400 3431 400 3794 
z
M 741 3794 
Q 741 3575 895 3420 
Q 1050 3266 1269 3266 
Q 1484 3266 1639 3420 
Q 1794 3575 1794 3794 
Q 1794 4013 1639 4167 
Q 1484 4322 1269 4322 
Q 1050 4322 895 4167 
Q 741 4013 741 3794 
z
" transform="scale(0.015625)"/>
       <path id="ArialMT-5d" d="M 1363 -1272 
L 122 -1272 
L 122 -806 
L 800 -806 
L 800 4116 
L 122 4116 
L 122 4581 
L 1363 4581 
L 1363 -1272 
z
" transform="scale(0.015625)"/>
      </defs>
      <use xlink:href="#ArialMT-41"/>
      <use xlink:href="#ArialMT-7a" transform="translate(66.699219 0)"/>
      <use xlink:href="#ArialMT-69" transform="translate(116.699219 0)"/>
      <use xlink:href="#ArialMT-6d" transform="translate(138.916016 0)"/>
      <use xlink:href="#ArialMT-75" transform="translate(222.216797 0)"/>
      <use xlink:href="#ArialMT-74" transform="translate(277.832031 0)"/>
      <use xlink:href="#ArialMT-68" transform="translate(305.615234 0)"/>
      <use xlink:href="#ArialMT-20" transform="translate(361.230469 0)"/>
      <use xlink:href="#ArialMT-5b" transform="translate(389.013672 0)"/>
      <use xlink:href="#ArialMT-b0" transform="translate(416.796875 0)"/>
      <use xlink:href="#ArialMT-5d" transform="translate(456.787109 0)"/>
     </g>
    </g>
   </g>
   <g id="matplotlib.axis_2">
    <g id="ytick_1">
     <g id="line2d_19">
      <path d="M 53.57 381.04 
L 694.305 381.04 
" clip-path="url(#paab17aeeeb)" style="fill: none; stroke-dasharray: 0.8,1.32; stroke-dashoffset: 0; stroke: #b0b0b0; stroke-width: 0.8"/>
     </g>
     <g id="line2d_20">
      <defs>
       <path id="m15418e15a3" d="M 0 0 
L -3.5 0 
" style="stroke: #000000; stroke-width: 0.8"/>
      </defs>
      <g>
       <use xlink:href="#m15418e15a3" x="53.57" y="381.04" style="stroke: #000000; stroke-width: 0.8"/>
      </g>
     </g>
     <g id="text_11">
      <!-- 0 -->
      <g transform="translate(40.2075 384.839219) scale(0.1 -0.1)">
       <use xlink:href="#DejaVuSans-30"/>
      </g>
     </g>
    </g>
    <g id="ytick_2">
     <g id="line2d_21">
      <path d="M 53.57 342.778889 
L 694.305 342.778889 
" clip-path="url(#paab17aeeeb)" style="fill: none; stroke-dasharray: 0.8,1.32; stroke-dashoffset: 0; stroke: #b0b0b0; stroke-width: 0.8"/>
     </g>
     <g id="line2d_22">
      <g>
       <use xlink:href="#m15418e15a3" x="53.57" y="342.778889" style="stroke: #000000; stroke-width: 0.8"/>
      </g>
     </g>
     <g id="text_12">
      <!-- 5 -->
      <g transform="translate(40.2075 346.578108) scale(0.1 -0.1)">
       <defs>
        <path id="DejaVuSans-35" d="M 691 4666 
L 3169 4666 
L 3169 4134 
L 1269 4134 
L 1269 2991 
Q 1406 3038 1543 3061 
Q 1681 3084 1819 3084 
Q 2600 3084 3056 2656 
Q 3513 2228 3513 1497 
Q 3513 744 3044 326 
Q 2575 -91 1722 -91 
Q 1428 -91 1123 -41 
Q 819 9 494 109 
L 494 744 
Q 775 591 1075 516 
Q 1375 441 1709 441 
Q 2250 441 2565 725 
Q 2881 1009 2881 1497 
Q 2881 1984 2565 2268 
Q 2250 2553 1709 2553 
Q 1456 2553 1204 2497 
Q 953 2441 691 2322 
L 691 4666 
z
" transform="scale(0.015625)"/>
       </defs>
       <use xlink:href="#DejaVuSans-35"/>
      </g>
     </g>
    </g>
    <g id="ytick_3">
     <g id="line2d_23">
      <path d="M 53.57 304.517778 
L 694.305 304.517778 
" clip-path="url(#paab17aeeeb)" style="fill: none; stroke-dasharray: 0.8,1.32; stroke-dashoffset: 0; stroke: #b0b0b0; stroke-width: 0.8"/>
     </g>
     <g id="line2d_24">
      <g>
       <use xlink:href="#m15418e15a3" x="53.57" y="304.517778" style="stroke: #000000; stroke-width: 0.8"/>
      </g>
     </g>
     <g id="text_13">
      <!-- 10 -->
      <g transform="translate(33.845 308.316997) scale(0.1 -0.1)">
       <use xlink:href="#DejaVuSans-31"/>
       <use xlink:href="#DejaVuSans-30" transform="translate(63.623047 0)"/>
      </g>
     </g>
    </g>
    <g id="ytick_4">
     <g id="line2d_25">
      <path d="M 53.57 266.256667 
L 694.305 266.256667 
" clip-path="url(#paab17aeeeb)" style="fill: none; stroke-dasharray: 0.8,1.32; stroke-dashoffset: 0; stroke: #b0b0b0; stroke-width: 0.8"/>
     </g>
     <g id="line2d_26">
      <g>
       <use xlink:href="#m15418e15a3" x="53.57" y="266.256667" style="stroke: #000000; stroke-width: 0.8"/>
      </g>
     </g>
     <g id="text_14">
      <!-- 15 -->
      <g transform="translate(33.845 270.055885) scale(0.1 -0.1)">
       <use xlink:href="#DejaVuSans-31"/>
       <use xlink:href="#DejaVuSans-35" transform="translate(63.623047 0)"/>
      </g>
     </g>
    </g>
    <g id="ytick_5">
     <g id="line2d_27">
      <path d="M 53.57 227.995556 
L 694.305 227.995556 
" clip-path="url(#paab17aeeeb)" style="fill: none; stroke-dasharray: 0.8,1.32; stroke-dashoffset: 0; stroke: #b0b0b0; stroke-width: 0.8"/>
     </g>
     <g id="line2d_28">
      <g>
       <use xlink:href="#m15418e15a3" x="53.57" y="227.995556" style="stroke: #000000; stroke-width: 0.8"/>
      </g>
     </g>
     <g id="text_15">
      <!-- 20 -->
      <g transform="translate(33.845 231.794774) scale(0.1 -0.1)">
       <use xlink:href="#DejaVuSans-32"/>
       <use xlink:href="#DejaVuSans-30" transform="translate(63.623047 0)"/>
      </g>
     </g>
    </g>
    <g id="ytick_6">
     <g id="line2d_29">
      <path d="M 53.57 189.734444 
L 694.305 189.734444 
" clip-path="url(#paab17aeeeb)" style="fill: none; stroke-dasharray: 0.8,1.32; stroke-dashoffset: 0; stroke: #b0b0b0; stroke-width: 0.8"/>
     </g>
     <g id="line2d_30">
      <g>
       <use xlink:href="#m15418e15a3" x="53.57" y="189.734444" style="stroke: #000000; stroke-width: 0.8"/>
      </g>
     </g>
     <g id="text_16">
      <!-- 25 -->
      <g transform="translate(33.845 193.533663) scale(0.1 -0.1)">
       <use xlink:href="#DejaVuSans-32"/>
       <use xlink:href="#DejaVuSans-35" transform="translate(63.623047 0)"/>
      </g>
     </g>
    </g>
    <g id="ytick_7">
     <g id="line2d_31">
      <path d="M 53.57 151.473333 
L 694.305 151.473333 
" clip-path="url(#paab17aeeeb)" style="fill: none; stroke-dasharray: 0.8,1.32; stroke-dashoffset: 0; stroke: #b0b0b0; stroke-width: 0.8"/>
     </g>
     <g id="line2d_32">
      <g>
       <use xlink:href="#m15418e15a3" x="53.57" y="151.473333" style="stroke: #000000; stroke-width: 0.8"/>
      </g>
     </g>
     <g id="text_17">
      <!-- 30 -->
      <g transform="translate(33.845 155.272552) scale(0.1 -0.1)">
       <defs>
        <path id="DejaVuSans-33" d="M 2597 2516 
Q 3050 2419 3304 2112 
Q 3559 1806 3559 1356 
Q 3559 666 3084 287 
Q 2609 -91 1734 -91 
Q 1441 -91 1130 -33 
Q 819 25 488 141 
L 488 750 
Q 750 597 1062 519 
Q 1375 441 1716 441 
Q 2309 441 2620 675 
Q 2931 909 2931 1356 
Q 2931 1769 2642 2001 
Q 2353 2234 1838 2234 
L 1294 2234 
L 1294 2753 
L 1863 2753 
Q 2328 2753 2575 2939 
Q 2822 3125 2822 3475 
Q 2822 3834 2567 4026 
Q 2313 4219 1838 4219 
Q 1578 4219 1281 4162 
Q 984 4106 628 3988 
L 628 4550 
Q 988 4650 1302 4700 
Q 1616 4750 1894 4750 
Q 2613 4750 3031 4423 
Q 3450 4097 3450 3541 
Q 3450 3153 3228 2886 
Q 3006 2619 2597 2516 
z
" transform="scale(0.015625)"/>
       </defs>
       <use xlink:href="#DejaVuSans-33"/>
       <use xlink:href="#DejaVuSans-30" transform="translate(63.623047 0)"/>
      </g>
     </g>
    </g>
    <g id="ytick_8">
     <g id="line2d_33">
      <path d="M 53.57 113.212222 
L 694.305 113.212222 
" clip-path="url(#paab17aeeeb)" style="fill: none; stroke-dasharray: 0.8,1.32; stroke-dashoffset: 0; stroke: #b0b0b0; stroke-width: 0.8"/>
     </g>
     <g id="line2d_34">
      <g>
       <use xlink:href="#m15418e15a3" x="53.57" y="113.212222" style="stroke: #000000; stroke-width: 0.8"/>
      </g>
     </g>
     <g id="text_18">
      <!-- 35 -->
      <g transform="translate(33.845 117.011441) scale(0.1 -0.1)">
       <use xlink:href="#DejaVuSans-33"/>
       <use xlink:href="#DejaVuSans-35" transform="translate(63.623047 0)"/>
      </g>
     </g>
    </g>
    <g id="ytick_9">
     <g id="line2d_35">
      <path d="M 53.57 74.951111 
L 694.305 74.951111 
" clip-path="url(#paab17aeeeb)" style="fill: none; stroke-dasharray: 0.8,1.32; stroke-dashoffset: 0; stroke: #b0b0b0; stroke-width: 0.8"/>
     </g>
     <g id="line2d_36">
      <g>
       <use xlink:href="#m15418e15a3" x="53.57" y="74.951111" style="stroke: #000000; stroke-width: 0.8"/>
      </g>
     </g>
     <g id="text_19">
      <!-- 40 -->
      <g transform="translate(33.845 78.75033) scale(0.1 -0.1)">
       <use xlink:href="#DejaVuSans-34"/>
       <use xlink:href="#DejaVuSans-30" transform="translate(63.623047 0)"/>
      </g>
     </g>
    </g>
    <g id="ytick_10">
     <g id="line2d_37">
      <path d="M 53.57 36.69 
L 694.305 36.69 
" clip-path="url(#paab17aeeeb)" style="fill: none; stroke-dasharray: 0.8,1.32; stroke-dashoffset: 0; stroke: #b0b0b0; stroke-width: 0.8"/>
     </g>
     <g id="line2d_38">
      <g>
       <use xlink:href="#m15418e15a3" x="53.57" y="36.69" style="stroke: #000000; stroke-width: 0.8"/>
      </g>
     </g>
     <g id="text_20">
      <!-- 45 -->
      <g transform="translate(33.845 40.489219) scale(0.1 -0.1)">
       <use xlink:href="#DejaVuSans-34"/>
       <use xlink:href="#DejaVuSans-35" transform="translate(63.623047 0)"/>
      </g>
     </g>
    </g>
    <g id="text_21">
     <!-- Elevation [°] -->
     <g transform="translate(26.86375 248.966563) rotate(-90) scale(0.15 -0.15)">
      <defs>
       <path id="ArialMT-45" d="M 506 0 
L 506 4581 
L 3819 4581 
L 3819 4041 
L 1113 4041 
L 1113 2638 
L 3647 2638 
L 3647 2100 
L 1113 2100 
L 1113 541 
L 3925 541 
L 3925 0 
L 506 0 
z
" transform="scale(0.015625)"/>
       <path id="ArialMT-6c" d="M 409 0 
L 409 4581 
L 972 4581 
L 972 0 
L 409 0 
z
" transform="scale(0.015625)"/>
       <path id="ArialMT-65" d="M 2694 1069 
L 3275 997 
Q 3138 488 2766 206 
Q 2394 -75 1816 -75 
Q 1088 -75 661 373 
Q 234 822 234 1631 
Q 234 2469 665 2931 
Q 1097 3394 1784 3394 
Q 2450 3394 2872 2941 
Q 3294 2488 3294 1666 
Q 3294 1616 3291 1516 
L 816 1516 
Q 847 969 1125 678 
Q 1403 388 1819 388 
Q 2128 388 2347 550 
Q 2566 713 2694 1069 
z
M 847 1978 
L 2700 1978 
Q 2663 2397 2488 2606 
Q 2219 2931 1791 2931 
Q 1403 2931 1139 2672 
Q 875 2413 847 1978 
z
" transform="scale(0.015625)"/>
       <path id="ArialMT-76" d="M 1344 0 
L 81 3319 
L 675 3319 
L 1388 1331 
Q 1503 1009 1600 663 
Q 1675 925 1809 1294 
L 2547 3319 
L 3125 3319 
L 1869 0 
L 1344 0 
z
" transform="scale(0.015625)"/>
       <path id="ArialMT-61" d="M 2588 409 
Q 2275 144 1986 34 
Q 1697 -75 1366 -75 
Q 819 -75 525 192 
Q 231 459 231 875 
Q 231 1119 342 1320 
Q 453 1522 633 1644 
Q 813 1766 1038 1828 
Q 1203 1872 1538 1913 
Q 2219 1994 2541 2106 
Q 2544 2222 2544 2253 
Q 2544 2597 2384 2738 
Q 2169 2928 1744 2928 
Q 1347 2928 1158 2789 
Q 969 2650 878 2297 
L 328 2372 
Q 403 2725 575 2942 
Q 747 3159 1072 3276 
Q 1397 3394 1825 3394 
Q 2250 3394 2515 3294 
Q 2781 3194 2906 3042 
Q 3031 2891 3081 2659 
Q 3109 2516 3109 2141 
L 3109 1391 
Q 3109 606 3145 398 
Q 3181 191 3288 0 
L 2700 0 
Q 2613 175 2588 409 
z
M 2541 1666 
Q 2234 1541 1622 1453 
Q 1275 1403 1131 1340 
Q 988 1278 909 1158 
Q 831 1038 831 891 
Q 831 666 1001 516 
Q 1172 366 1500 366 
Q 1825 366 2078 508 
Q 2331 650 2450 897 
Q 2541 1088 2541 1459 
L 2541 1666 
z
" transform="scale(0.015625)"/>
       <path id="ArialMT-6f" d="M 213 1659 
Q 213 2581 725 3025 
Q 1153 3394 1769 3394 
Q 2453 3394 2887 2945 
Q 3322 2497 3322 1706 
Q 3322 1066 3130 698 
Q 2938 331 2570 128 
Q 2203 -75 1769 -75 
Q 1072 -75 642 372 
Q 213 819 213 1659 
z
M 791 1659 
Q 791 1022 1069 705 
Q 1347 388 1769 388 
Q 2188 388 2466 706 
Q 2744 1025 2744 1678 
Q 2744 2294 2464 2611 
Q 2184 2928 1769 2928 
Q 1347 2928 1069 2612 
Q 791 2297 791 1659 
z
" transform="scale(0.015625)"/>
       <path id="ArialMT-6e" d="M 422 0 
L 422 3319 
L 928 3319 
L 928 2847 
Q 1294 3394 1984 3394 
Q 2284 3394 2536 3286 
Q 2788 3178 2913 3003 
Q 3038 2828 3088 2588 
Q 3119 2431 3119 2041 
L 3119 0 
L 2556 0 
L 2556 2019 
Q 2556 2363 2490 2533 
Q 2425 2703 2258 2804 
Q 2091 2906 1866 2906 
Q 1506 2906 1245 2678 
Q 984 2450 984 1813 
L 984 0 
L 422 0 
z
" transform="scale(0.015625)"/>
      </defs>
      <use xlink:href="#ArialMT-45"/>
      <use xlink:href="#ArialMT-6c" transform="translate(66.699219 0)"/>
      <use xlink:href="#ArialMT-65" transform="translate(88.916016 0)"/>
      <use xlink:href="#ArialMT-76" transform="translate(144.53125 0)"/>
      <use xlink:href="#ArialMT-61" transform="translate(194.53125 0)"/>
      <use xlink:href="#ArialMT-74" transform="translate(250.146484 0)"/>
      <use xlink:href="#ArialMT-69" transform="translate(277.929688 0)"/>
      <use xlink:href="#ArialMT-6f" transform="translate(300.146484 0)"/>
      <use xlink:href="#ArialMT-6e" transform="translate(355.761719 0)"/>
      <use xlink:href="#ArialMT-20" transform="translate(411.376953 0)"/>
      <use xlink:href="#ArialMT-5b" transform="translate(439.160156 0)"/>
      <use xlink:href="#ArialMT-b0" transform="translate(466.943359 0)"/>
      <use xlink:href="#ArialMT-5d" transform="translate(506.933594 0)"/>
     </g>
    </g>
   </g>
   <g id="line2d_39">
    <path d="M 38.786273 379.298038 
L 43.083733 367.953124 
L 47.422045 356.590773 
L 51.807514 345.215225 
L 56.24664 333.830989 
L 60.74614 322.442878 
L 65.312976 311.056042 
L 69.954382 299.676002 
L 74.67789 288.308689 
L 79.491361 276.960484 
L 84.403008 265.638261 
L 89.421429 254.349434 
L 94.555627 243.102009 
L 99.815041 231.904632 
L 105.209563 220.766649 
L 110.749564 209.698167 
L 116.445899 198.710115 
L 122.309925 187.814316 
L 128.353493 177.023551 
L 134.588936 166.35164 
L 141.029049 155.813512 
L 147.687037 145.425281 
L 154.57645 135.204325 
L 161.711093 125.169355 
L 169.104889 115.34048 
L 176.771718 105.739267 
L 184.725203 96.388781 
L 192.978441 87.313609 
L 201.54368 78.539853 
L 210.431935 70.095095 
L 219.652535 62.008312 
L 229.212615 54.309747 
L 239.116544 47.030703 
L 249.365325 40.203288 
L 259.95597 33.860056 
L 270.880893 28.033587 
L 282.127363 22.755975 
L 293.677058 18.058236 
L 305.505789 13.969663 
L 317.583426 10.517136 
L 329.874093 7.72442 
L 342.336652 5.611492 
L 354.925475 4.193936 
L 367.591499 3.48244 
L 380.283501 3.48244 
L 392.949525 4.193936 
L 405.538348 5.611492 
L 418.000907 7.72442 
L 430.291574 10.517136 
L 442.369211 13.969663 
L 454.197942 18.058236 
L 465.747637 22.755975 
L 476.994107 28.033587 
L 487.91903 33.860056 
L 498.509675 40.203288 
L 508.758456 47.030703 
L 518.662385 54.309747 
L 528.222465 62.008312 
L 537.443065 70.095095 
L 546.33132 78.539853 
L 554.896559 87.313609 
L 563.149797 96.388781 
L 571.103282 105.739267 
L 578.770111 115.34048 
L 586.163907 125.169355 
L 593.29855 135.204325 
L 600.187963 145.425281 
L 606.845951 155.813512 
L 613.286064 166.35164 
L 619.521507 177.023551 
L 625.565075 187.814316 
L 631.429101 198.710115 
L 637.125436 209.698167 
L 642.665437 220.766649 
L 648.059959 231.904632 
L 653.319373 243.102009 
L 658.453571 254.349434 
L 663.471992 265.638261 
L 668.383639 276.960484 
L 673.19711 288.308689 
L 677.920618 299.676002 
L 682.562024 311.056042 
L 687.12886 322.442878 
L 691.62836 333.830989 
L 696.067486 345.215225 
L 700.452955 356.590773 
L 704.791267 367.953124 
L 709.088727 379.298038 
" clip-path="url(#paab17aeeeb)" style="fill: none; stroke: #1f77b4; stroke-linecap: square"/>
   </g>
   <g id="line2d_40">
    <path d="M 46.603957 373.182109 
L 51.442196 362.603027 
L 56.326139 352.0221 
L 61.261931 341.444587 
L 66.255863 330.87604 
L 71.314394 320.322335 
L 76.444162 309.7897 
L 81.652001 299.284748 
L 86.94495 288.814511 
L 92.330267 278.386477 
L 97.815436 268.008624 
L 103.408175 257.689459 
L 109.116437 247.438058 
L 114.948407 237.264106 
L 120.912502 227.177938 
L 127.017351 217.190584 
L 133.271778 207.313805 
L 139.684772 197.560139 
L 146.265446 187.94294 
L 153.022985 178.476414 
L 159.966577 169.17565 
L 167.105326 160.056654 
L 174.448154 151.136363 
L 182.003667 142.432657 
L 189.780017 133.964356 
L 197.78472 125.751204 
L 206.024463 117.81383 
L 214.504879 110.173689 
L 223.230304 102.852977 
L 232.203506 95.874514 
L 241.425408 89.261597 
L 250.894805 83.037811 
L 260.608079 77.226815 
L 270.558938 71.852073 
L 280.738192 66.936564 
L 291.133575 62.502455 
L 301.729648 58.570743 
L 312.507775 55.160894 
L 323.446221 52.290465 
L 334.520352 49.974749 
L 345.702951 48.226435 
L 356.964659 47.055321 
L 368.2745 46.468075 
L 379.6005 46.468075 
L 390.910341 47.055321 
L 402.172049 48.226435 
L 413.354648 49.974749 
L 424.428779 52.290465 
L 435.367225 55.160894 
L 446.145352 58.570743 
L 456.741425 62.502455 
L 467.136808 66.936564 
L 477.316062 71.852073 
L 487.266921 77.226815 
L 496.980195 83.037811 
L 506.449592 89.261597 
L 515.671494 95.874514 
L 524.644696 102.852977 
L 533.370121 110.173689 
L 541.850537 117.81383 
L 550.09028 125.751204 
L 558.094983 133.964356 
L 565.871333 142.432657 
L 573.426846 151.136363 
L 580.769674 160.056654 
L 587.908423 169.17565 
L 594.852015 178.476414 
L 601.609554 187.94294 
L 608.190228 197.560139 
L 614.603222 207.313805 
L 620.857649 217.190584 
L 626.962498 227.177938 
L 632.926593 237.264106 
L 638.758563 247.438058 
L 644.466825 257.689459 
L 650.059564 268.008624 
L 655.544733 278.386477 
L 660.93005 288.814511 
L 666.222999 299.284748 
L 671.430838 309.7897 
L 676.560606 320.322335 
L 681.619137 330.87604 
L 686.613069 341.444587 
L 691.548861 352.0221 
L 696.432804 362.603027 
L 701.271043 373.182109 
" clip-path="url(#paab17aeeeb)" style="fill: none; stroke-dasharray: 3.7,1.6; stroke-dashoffset: 0; stroke: #ff7f0e"/>
   </g>
   <g id="line2d_41">
    <path d="M 58.542348 376.448954 
L 64.288765 367.672602 
L 70.077449 358.918923 
L 75.913206 350.194156 
L 81.800868 341.504775 
L 87.745292 332.857507 
L 93.751354 324.259345 
L 99.823944 315.717566 
L 105.96796 307.23975 
L 112.188296 298.833788 
L 118.489831 290.507902 
L 124.877414 282.270657 
L 131.355843 274.130968 
L 137.929847 266.098114 
L 144.604056 258.181746 
L 151.382975 250.391886 
L 158.270947 242.738934 
L 165.272116 235.233664 
L 172.390385 227.887217 
L 179.629363 220.711091 
L 186.992318 213.717122 
L 194.482116 206.917463 
L 202.10116 200.324555 
L 209.851328 193.951088 
L 217.733903 187.809956 
L 225.749503 181.914203 
L 233.898015 176.276965 
L 242.178526 170.911391 
L 250.589259 165.830567 
L 259.127513 161.047428 
L 267.789617 156.574658 
L 276.570884 152.424584 
L 285.465594 148.60907 
L 294.466976 145.139401 
L 303.567219 142.026165 
L 312.757501 139.279137 
L 322.028038 136.907165 
L 331.368152 134.918063 
L 340.766369 133.318512 
L 350.210526 132.11397 
L 359.687909 131.308599 
L 369.185394 130.905207 
L 378.689606 130.905207 
L 388.187091 131.308599 
L 397.664474 132.11397 
L 407.108631 133.318512 
L 416.506848 134.918063 
L 425.846962 136.907165 
L 435.117499 139.279137 
L 444.307781 142.026165 
L 453.408024 145.139401 
L 462.409406 148.60907 
L 471.304116 152.424584 
L 480.085383 156.574658 
L 488.747487 161.047428 
L 497.285741 165.830567 
L 505.696474 170.911391 
L 513.976985 176.276965 
L 522.125497 181.914203 
L 530.141097 187.809956 
L 538.023672 193.951088 
L 545.77384 200.324555 
L 553.392884 206.917463 
L 560.882682 213.717122 
L 568.245637 220.711091 
L 575.484615 227.887217 
L 582.602884 235.233664 
L 589.604053 242.738934 
L 596.492025 250.391886 
L 603.270944 258.181746 
L 609.945153 266.098114 
L 616.519157 274.130968 
L 622.997586 282.270657 
L 629.385169 290.507902 
L 635.686704 298.833788 
L 641.90704 307.23975 
L 648.051056 315.717566 
L 654.123646 324.259345 
L 660.129708 332.857507 
L 666.074132 341.504775 
L 671.961794 350.194156 
L 677.797551 358.918923 
L 683.586235 367.672602 
L 689.332652 376.448954 
" clip-path="url(#paab17aeeeb)" style="fill: none; stroke-dasharray: 6.4,1.6,1,1.6; stroke-dashoffset: 0; stroke: #2ca02c"/>
   </g>
   <g id="line2d_42">
    <path d="M 77.106404 378.857811 
L 83.585394 372.181527 
L 90.098502 365.549155 
L 96.648639 358.966713 
L 103.238659 352.440344 
L 109.87135 345.976316 
L 116.549422 339.581028 
L 123.275501 333.261007 
L 130.052113 327.02291 
L 136.881675 320.87352 
L 143.766483 314.819747 
L 150.708696 308.868619 
L 157.710321 303.027281 
L 164.773198 297.302981 
L 171.898985 291.703066 
L 179.08914 286.234966 
L 186.344902 280.906181 
L 193.667275 275.724268 
L 201.057011 270.696816 
L 208.514589 265.831434 
L 216.040199 261.135718 
L 223.633729 256.617233 
L 231.294741 252.283483 
L 239.022466 248.14188 
L 246.815786 244.19971 
L 254.673224 240.464106 
L 262.59294 236.942006 
L 270.572722 233.640116 
L 278.609989 230.56488 
L 286.701792 227.722431 
L 294.844819 225.118561 
L 303.03541 222.758681 
L 311.269569 220.64778 
L 319.542986 218.790398 
L 327.85106 217.190584 
L 336.188929 215.851872 
L 344.551502 214.777251 
L 352.933495 213.96914 
L 361.329472 213.429374 
L 369.733884 213.159182 
L 378.141116 213.159182 
L 386.545528 213.429374 
L 394.941505 213.96914 
L 403.323498 214.777251 
L 411.686071 215.851872 
L 420.02394 217.190584 
L 428.332014 218.790398 
L 436.605431 220.64778 
L 444.83959 222.758681 
L 453.030181 225.118561 
L 461.173208 227.722431 
L 469.265011 230.56488 
L 477.302278 233.640116 
L 485.28206 236.942006 
L 493.201776 240.464106 
L 501.059214 244.19971 
L 508.852534 248.14188 
L 516.580259 252.283483 
L 524.241271 256.617233 
L 531.834801 261.135718 
L 539.360411 265.831434 
L 546.817989 270.696816 
L 554.207725 275.724268 
L 561.530098 280.906181 
L 568.78586 286.234966 
L 575.976015 291.703066 
L 583.101802 297.302981 
L 590.164679 303.027281 
L 597.166304 308.868619 
L 604.108517 314.819747 
L 610.993325 320.87352 
L 617.822887 327.02291 
L 624.599499 333.261007 
L 631.325578 339.581028 
L 638.00365 345.976316 
L 644.636341 352.440344 
L 651.226361 358.966713 
L 657.776498 365.549155 
L 664.289606 372.181527 
L 670.768596 378.857811 
" clip-path="url(#paab17aeeeb)" style="fill: none; stroke-dasharray: 1,1.65; stroke-dashoffset: 0; stroke: #d62728"/>
   </g>
   <g id="line2d_43">
    <path d="M 117.033384 378.544172 
L 124.0587 374.287212 
L 131.106837 370.091785 
L 138.178803 365.962361 
L 145.275529 361.903417 
L 152.397865 357.919426 
L 159.54657 354.014854 
L 166.722313 350.194156 
L 173.925665 346.461764 
L 181.157095 342.822086 
L 188.416966 339.279494 
L 195.705533 335.838316 
L 203.022934 332.502829 
L 210.369194 329.27725 
L 217.744215 326.165722 
L 225.14778 323.172308 
L 232.579544 320.300982 
L 240.03904 317.555611 
L 247.525675 314.93995 
L 255.038728 312.457628 
L 262.577356 310.112138 
L 270.140592 307.906824 
L 277.727347 305.84487 
L 285.336415 303.929289 
L 292.966478 302.162913 
L 300.616109 300.548378 
L 308.283778 299.088119 
L 315.967862 297.784357 
L 323.666648 296.639092 
L 331.378343 295.654092 
L 339.101085 294.830889 
L 346.832951 294.170767 
L 354.571967 293.674764 
L 362.316118 293.343659 
L 370.063362 293.177976 
L 377.811638 293.177976 
L 385.558882 293.343659 
L 393.303033 293.674764 
L 401.042049 294.170767 
L 408.773915 294.830889 
L 416.496657 295.654092 
L 424.208352 296.639092 
L 431.907138 297.784357 
L 439.591222 299.088119 
L 447.258891 300.548378 
L 454.908522 302.162913 
L 462.538585 303.929289 
L 470.147653 305.84487 
L 477.734408 307.906824 
L 485.297644 310.112138 
L 492.836272 312.457628 
L 500.349325 314.93995 
L 507.83596 317.555611 
L 515.295456 320.300982 
L 522.72722 323.172308 
L 530.130785 326.165722 
L 537.505806 329.27725 
L 544.852066 332.502829 
L 552.169467 335.838316 
L 559.458034 339.279494 
L 566.717905 342.822086 
L 573.949335 346.461764 
L 581.152687 350.194156 
L 588.32843 354.014854 
L 595.477135 357.919426 
L 602.599471 361.903417 
L 609.696197 365.962361 
L 616.768163 370.091785 
L 623.8163 374.287212 
L 630.841616 378.544172 
" clip-path="url(#paab17aeeeb)" style="fill: none; stroke: #9467bd; stroke-linecap: square"/>
   </g>
   <g id="line2d_44">
    <path d="M 259.612366 380.169389 
L 266.957804 379.048382 
L 274.308975 377.996122 
L 281.665597 377.013817 
L 289.027369 376.102601 
L 296.393964 375.263529 
L 303.765037 374.497576 
L 311.140222 373.805634 
L 318.519137 373.188511 
L 325.901381 372.64693 
L 333.286542 372.181527 
L 340.674191 371.79285 
L 348.063893 371.481357 
L 355.455199 371.247414 
L 362.847657 371.091298 
L 370.240809 371.013194 
L 377.634191 371.013194 
L 385.027343 371.091298 
L 392.419801 371.247414 
L 399.811107 371.481357 
L 407.200809 371.79285 
L 414.588458 372.181527 
L 421.973619 372.64693 
L 429.355863 373.188511 
L 436.734778 373.805634 
L 444.109963 374.497576 
L 451.481036 375.263529 
L 458.847631 376.102601 
L 466.209403 377.013817 
L 473.566025 377.996122 
L 480.917196 379.048382 
L 488.262634 380.169389 
" clip-path="url(#paab17aeeeb)" style="fill: none; stroke-dasharray: 3.7,1.6; stroke-dashoffset: 0; stroke: #8c564b"/>
   </g>
   <g id="patch_3">
    <path d="M 53.57 381.04 
L 53.57 36.69 
" style="fill: none; stroke: #000000; stroke-width: 0.8; stroke-linejoin: miter; stroke-linecap: square"/>
   </g>
   <g id="patch_4">
    <path d="M 694.305 381.04 
L 694.305 36.69 
" style="fill: none; stroke: #000000; stroke-width: 0.8; stroke-linejoin: miter; stroke-linecap: square"/>
   </g>
   <g id="patch_5">
    <path d="M 53.57 381.04 
L 694.305 381.04 
" style="fill: none; stroke: #000000; stroke-width: 0.8; stroke-linejoin: miter; stroke-linecap: square"/>
   </g>
   <g id="patch_6">
    <path d="M 53.57 36.69 
L 694.305 36.69 
" style="fill: none; stroke: #000000; stroke-width: 0.8; stroke-linejoin: miter; stroke-linecap: square"/>
   </g>
   <g id="text_22">
    <!-- Visible Geostationary Satellite Arc by Latitude -->
    <g transform="translate(172.34375 30.69) scale(0.2 -0.2)">
     <defs>
      <path id="ArialMT-56" d="M 1803 0 
L 28 4581 
L 684 4581 
L 1875 1253 
Q 2019 853 2116 503 
Q 2222 878 2363 1253 
L 3600 4581 
L 4219 4581 
L 2425 0 
L 1803 0 
z
" transform="scale(0.015625)"/>
      <path id="ArialMT-73" d="M 197 991 
L 753 1078 
Q 800 744 1014 566 
Q 1228 388 1613 388 
Q 2000 388 2187 545 
Q 2375 703 2375 916 
Q 2375 1106 2209 1216 
Q 2094 1291 1634 1406 
Q 1016 1563 777 1677 
Q 538 1791 414 1992 
Q 291 2194 291 2438 
Q 291 2659 392 2848 
Q 494 3038 669 3163 
Q 800 3259 1026 3326 
Q 1253 3394 1513 3394 
Q 1903 3394 2198 3281 
Q 2494 3169 2634 2976 
Q 2775 2784 2828 2463 
L 2278 2388 
Q 2241 2644 2061 2787 
Q 1881 2931 1553 2931 
Q 1166 2931 1000 2803 
Q 834 2675 834 2503 
Q 834 2394 903 2306 
Q 972 2216 1119 2156 
Q 1203 2125 1616 2013 
Q 2213 1853 2448 1751 
Q 2684 1650 2818 1456 
Q 2953 1263 2953 975 
Q 2953 694 2789 445 
Q 2625 197 2315 61 
Q 2006 -75 1616 -75 
Q 969 -75 630 194 
Q 291 463 197 991 
z
" transform="scale(0.015625)"/>
      <path id="ArialMT-62" d="M 941 0 
L 419 0 
L 419 4581 
L 981 4581 
L 981 2947 
Q 1338 3394 1891 3394 
Q 2197 3394 2470 3270 
Q 2744 3147 2920 2923 
Q 3097 2700 3197 2384 
Q 3297 2069 3297 1709 
Q 3297 856 2875 390 
Q 2453 -75 1863 -75 
Q 1275 -75 941 416 
L 941 0 
z
M 934 1684 
Q 934 1088 1097 822 
Q 1363 388 1816 388 
Q 2184 388 2453 708 
Q 2722 1028 2722 1663 
Q 2722 2313 2464 2622 
Q 2206 2931 1841 2931 
Q 1472 2931 1203 2611 
Q 934 2291 934 1684 
z
" transform="scale(0.015625)"/>
      <path id="ArialMT-47" d="M 2638 1797 
L 2638 2334 
L 4578 2338 
L 4578 638 
Q 4131 281 3656 101 
Q 3181 -78 2681 -78 
Q 2006 -78 1454 211 
Q 903 500 622 1047 
Q 341 1594 341 2269 
Q 341 2938 620 3517 
Q 900 4097 1425 4378 
Q 1950 4659 2634 4659 
Q 3131 4659 3532 4498 
Q 3934 4338 4162 4050 
Q 4391 3763 4509 3300 
L 3963 3150 
Q 3859 3500 3706 3700 
Q 3553 3900 3268 4020 
Q 2984 4141 2638 4141 
Q 2222 4141 1919 4014 
Q 1616 3888 1430 3681 
Q 1244 3475 1141 3228 
Q 966 2803 966 2306 
Q 966 1694 1177 1281 
Q 1388 869 1791 669 
Q 2194 469 2647 469 
Q 3041 469 3416 620 
Q 3791 772 3984 944 
L 3984 1797 
L 2638 1797 
z
" transform="scale(0.015625)"/>
      <path id="ArialMT-72" d="M 416 0 
L 416 3319 
L 922 3319 
L 922 2816 
Q 1116 3169 1280 3281 
Q 1444 3394 1641 3394 
Q 1925 3394 2219 3213 
L 2025 2691 
Q 1819 2813 1613 2813 
Q 1428 2813 1281 2702 
Q 1134 2591 1072 2394 
Q 978 2094 978 1738 
L 978 0 
L 416 0 
z
" transform="scale(0.015625)"/>
      <path id="ArialMT-79" d="M 397 -1278 
L 334 -750 
Q 519 -800 656 -800 
Q 844 -800 956 -737 
Q 1069 -675 1141 -563 
Q 1194 -478 1313 -144 
Q 1328 -97 1363 -6 
L 103 3319 
L 709 3319 
L 1400 1397 
Q 1534 1031 1641 628 
Q 1738 1016 1872 1384 
L 2581 3319 
L 3144 3319 
L 1881 -56 
Q 1678 -603 1566 -809 
Q 1416 -1088 1222 -1217 
Q 1028 -1347 759 -1347 
Q 597 -1347 397 -1278 
z
" transform="scale(0.015625)"/>
      <path id="ArialMT-53" d="M 288 1472 
L 859 1522 
Q 900 1178 1048 958 
Q 1197 738 1509 602 
Q 1822 466 2213 466 
Q 2559 466 2825 569 
Q 3091 672 3220 851 
Q 3350 1031 3350 1244 
Q 3350 1459 3225 1620 
Q 3100 1781 2813 1891 
Q 2628 1963 1997 2114 
Q 1366 2266 1113 2400 
Q 784 2572 623 2826 
Q 463 3081 463 3397 
Q 463 3744 659 4045 
Q 856 4347 1234 4503 
Q 1613 4659 2075 4659 
Q 2584 4659 2973 4495 
Q 3363 4331 3572 4012 
Q 3781 3694 3797 3291 
L 3216 3247 
Q 3169 3681 2898 3903 
Q 2628 4125 2100 4125 
Q 1550 4125 1298 3923 
Q 1047 3722 1047 3438 
Q 1047 3191 1225 3031 
Q 1400 2872 2139 2705 
Q 2878 2538 3153 2413 
Q 3553 2228 3743 1945 
Q 3934 1663 3934 1294 
Q 3934 928 3725 604 
Q 3516 281 3123 101 
Q 2731 -78 2241 -78 
Q 1619 -78 1198 103 
Q 778 284 539 648 
Q 300 1013 288 1472 
z
" transform="scale(0.015625)"/>
      <path id="ArialMT-63" d="M 2588 1216 
L 3141 1144 
Q 3050 572 2676 248 
Q 2303 -75 1759 -75 
Q 1078 -75 664 370 
Q 250 816 250 1647 
Q 250 2184 428 2587 
Q 606 2991 970 3192 
Q 1334 3394 1763 3394 
Q 2303 3394 2647 3120 
Q 2991 2847 3088 2344 
L 2541 2259 
Q 2463 2594 2264 2762 
Q 2066 2931 1784 2931 
Q 1359 2931 1093 2626 
Q 828 2322 828 1663 
Q 828 994 1084 691 
Q 1341 388 1753 388 
Q 2084 388 2306 591 
Q 2528 794 2588 1216 
z
" transform="scale(0.015625)"/>
      <path id="ArialMT-4c" d="M 469 0 
L 469 4581 
L 1075 4581 
L 1075 541 
L 3331 541 
L 3331 0 
L 469 0 
z
" transform="scale(0.015625)"/>
      <path id="ArialMT-64" d="M 2575 0 
L 2575 419 
Q 2259 -75 1647 -75 
Q 1250 -75 917 144 
Q 584 363 401 755 
Q 219 1147 219 1656 
Q 219 2153 384 2558 
Q 550 2963 881 3178 
Q 1213 3394 1622 3394 
Q 1922 3394 2156 3267 
Q 2391 3141 2538 2938 
L 2538 4581 
L 3097 4581 
L 3097 0 
L 2575 0 
z
M 797 1656 
Q 797 1019 1065 703 
Q 1334 388 1700 388 
Q 2069 388 2326 689 
Q 2584 991 2584 1609 
Q 2584 2291 2321 2609 
Q 2059 2928 1675 2928 
Q 1300 2928 1048 2622 
Q 797 2316 797 1656 
z
" transform="scale(0.015625)"/>
     </defs>
     <use xlink:href="#ArialMT-56"/>
     <use xlink:href="#ArialMT-69" transform="translate(64.949219 0)"/>
     <use xlink:href="#ArialMT-73" transform="translate(87.166016 0)"/>
     <use xlink:href="#ArialMT-69" transform="translate(137.166016 0)"/>
     <use xlink:href="#ArialMT-62" transform="translate(159.382812 0)"/>
     <use xlink:href="#ArialMT-6c" transform="translate(214.998047 0)"/>
     <use xlink:href="#ArialMT-65" transform="translate(237.214844 0)"/>
     <use xlink:href="#ArialMT-20" transform="translate(292.830078 0)"/>
     <use xlink:href="#ArialMT-47" transform="translate(320.613281 0)"/>
     <use xlink:href="#ArialMT-65" transform="translate(398.396484 0)"/>
     <use xlink:href="#ArialMT-6f" transform="translate(454.011719 0)"/>
     <use xlink:href="#ArialMT-73" transform="translate(509.626953 0)"/>
     <use xlink:href="#ArialMT-74" transform="translate(559.626953 0)"/>
     <use xlink:href="#ArialMT-61" transform="translate(587.410156 0)"/>
     <use xlink:href="#ArialMT-74" transform="translate(643.025391 0)"/>
     <use xlink:href="#ArialMT-69" transform="translate(670.808594 0)"/>
     <use xlink:href="#ArialMT-6f" transform="translate(693.025391 0)"/>
     <use xlink:href="#ArialMT-6e" transform="translate(748.640625 0)"/>
     <use xlink:href="#ArialMT-61" transform="translate(804.255859 0)"/>
     <use xlink:href="#ArialMT-72" transform="translate(859.871094 0)"/>
     <use xlink:href="#ArialMT-79" transform="translate(893.171875 0)"/>
     <use xlink:href="#ArialMT-20" transform="translate(943.171875 0)"/>
     <use xlink:href="#ArialMT-53" transform="translate(970.955078 0)"/>
     <use xlink:href="#ArialMT-61" transform="translate(1037.654297 0)"/>
     <use xlink:href="#ArialMT-74" transform="translate(1093.269531 0)"/>
     <use xlink:href="#ArialMT-65" transform="translate(1121.052734 0)"/>
     <use xlink:href="#ArialMT-6c" transform="translate(1176.667969 0)"/>
     <use xlink:href="#ArialMT-6c" transform="translate(1198.884766 0)"/>
     <use xlink:href="#ArialMT-69" transform="translate(1221.101562 0)"/>
     <use xlink:href="#ArialMT-74" transform="translate(1243.318359 0)"/>
     <use xlink:href="#ArialMT-65" transform="translate(1271.101562 0)"/>
     <use xlink:href="#ArialMT-20" transform="translate(1326.716797 0)"/>
     <use xlink:href="#ArialMT-41" transform="translate(1349 0)"/>
     <use xlink:href="#ArialMT-72" transform="translate(1415.699219 0)"/>
     <use xlink:href="#ArialMT-63" transform="translate(1449 0)"/>
     <use xlink:href="#ArialMT-20" transform="translate(1499 0)"/>
     <use xlink:href="#ArialMT-62" transform="translate(1526.783203 0)"/>
     <use xlink:href="#ArialMT-79" transform="translate(1582.398438 0)"/>
     <use xlink:href="#ArialMT-20" transform="translate(1632.398438 0)"/>
     <use xlink:href="#ArialMT-4c" transform="translate(1660.181641 0)"/>
     <use xlink:href="#ArialMT-61" transform="translate(1715.796875 0)"/>
     <use xlink:href="#ArialMT-74" transform="translate(1771.412109 0)"/>
     <use xlink:href="#ArialMT-69" transform="translate(1799.195312 0)"/>
     <use xlink:href="#ArialMT-74" transform="translate(1821.412109 0)"/>
     <use xlink:href="#ArialMT-75" transform="translate(1849.195312 0)"/>
     <use xlink:href="#ArialMT-64" transform="translate(1904.810547 0)"/>
     <use xlink:href="#ArialMT-65" transform="translate(1960.425781 0)"/>
    </g>
   </g>
   <g id="legend_1">
    <g id="patch_7">
     <path d="M 593.228438 180.793125 
L 683.805 180.793125 
Q 686.805 180.793125 686.805 177.793125 
L 686.805 47.19 
Q 686.805 44.19 683.805 44.19 
L 593.228438 44.19 
Q 590.228438 44.19 590.228438 47.19 
L 590.228438 177.793125 
Q 590.228438 180.793125 593.228438 180.793125 
z
" style="fill: #ffffff; opacity: 0.8; stroke: #cccccc; stroke-linejoin: miter"/>
    </g>
    <g id="line2d_45">
     <path d="M 596.228438 56.337656 
L 611.228438 56.337656 
L 626.228438 56.337656 
" style="fill: none; stroke: #1f77b4; stroke-linecap: square"/>
    </g>
    <g id="text_23">
     <!-- 35° N -->
     <g transform="translate(638.228438 61.587656) scale(0.15 -0.15)">
      <defs>
       <path id="DejaVuSans-b0" d="M 1600 4347 
Q 1350 4347 1178 4173 
Q 1006 4000 1006 3750 
Q 1006 3503 1178 3333 
Q 1350 3163 1600 3163 
Q 1850 3163 2022 3333 
Q 2194 3503 2194 3750 
Q 2194 3997 2020 4172 
Q 1847 4347 1600 4347 
z
M 1600 4750 
Q 1800 4750 1984 4673 
Q 2169 4597 2303 4453 
Q 2447 4313 2519 4134 
Q 2591 3956 2591 3750 
Q 2591 3338 2302 3052 
Q 2013 2766 1594 2766 
Q 1172 2766 890 3047 
Q 609 3328 609 3750 
Q 609 4169 896 4459 
Q 1184 4750 1600 4750 
z
" transform="scale(0.015625)"/>
       <path id="DejaVuSans-20" transform="scale(0.015625)"/>
       <path id="DejaVuSans-4e" d="M 628 4666 
L 1478 4666 
L 3547 763 
L 3547 4666 
L 4159 4666 
L 4159 0 
L 3309 0 
L 1241 3903 
L 1241 0 
L 628 0 
L 628 4666 
z
" transform="scale(0.015625)"/>
      </defs>
      <use xlink:href="#DejaVuSans-33"/>
      <use xlink:href="#DejaVuSans-35" transform="translate(63.623047 0)"/>
      <use xlink:href="#DejaVuSans-b0" transform="translate(127.246094 0)"/>
      <use xlink:href="#DejaVuSans-20" transform="translate(177.246094 0)"/>
      <use xlink:href="#DejaVuSans-4e" transform="translate(209.033203 0)"/>
     </g>
    </g>
    <g id="line2d_46">
     <path d="M 596.228438 78.354844 
L 611.228438 78.354844 
L 626.228438 78.354844 
" style="fill: none; stroke-dasharray: 3.7,1.6; stroke-dashoffset: 0; stroke: #ff7f0e"/>
    </g>
    <g id="text_24">
     <!-- 40° N -->
     <g transform="translate(638.228438 83.604844) scale(0.15 -0.15)">
      <use xlink:href="#DejaVuSans-34"/>
      <use xlink:href="#DejaVuSans-30" transform="translate(63.623047 0)"/>
      <use xlink:href="#DejaVuSans-b0" transform="translate(127.246094 0)"/>
      <use xlink:href="#DejaVuSans-20" transform="translate(177.246094 0)"/>
      <use xlink:href="#DejaVuSans-4e" transform="translate(209.033203 0)"/>
     </g>
    </g>
    <g id="line2d_47">
     <path d="M 596.228438 100.372031 
L 611.228438 100.372031 
L 626.228438 100.372031 
" style="fill: none; stroke-dasharray: 6.4,1.6,1,1.6; stroke-dashoffset: 0; stroke: #2ca02c"/>
    </g>
    <g id="text_25">
     <!-- 50° N -->
     <g transform="translate(638.228438 105.622031) scale(0.15 -0.15)">
      <use xlink:href="#DejaVuSans-35"/>
      <use xlink:href="#DejaVuSans-30" transform="translate(63.623047 0)"/>
      <use xlink:href="#DejaVuSans-b0" transform="translate(127.246094 0)"/>
      <use xlink:href="#DejaVuSans-20" transform="translate(177.246094 0)"/>
      <use xlink:href="#DejaVuSans-4e" transform="translate(209.033203 0)"/>
     </g>
    </g>
    <g id="line2d_48">
     <path d="M 596.228438 122.389219 
L 611.228438 122.389219 
L 626.228438 122.389219 
" style="fill: none; stroke-dasharray: 1,1.65; stroke-dashoffset: 0; stroke: #d62728"/>
    </g>
    <g id="text_26">
     <!-- 60° N -->
     <g transform="translate(638.228438 127.639219) scale(0.15 -0.15)">
      <use xlink:href="#DejaVuSans-36"/>
      <use xlink:href="#DejaVuSans-30" transform="translate(63.623047 0)"/>
      <use xlink:href="#DejaVuSans-b0" transform="translate(127.246094 0)"/>
      <use xlink:href="#DejaVuSans-20" transform="translate(177.246094 0)"/>
      <use xlink:href="#DejaVuSans-4e" transform="translate(209.033203 0)"/>
     </g>
    </g>
    <g id="line2d_49">
     <path d="M 596.228438 144.406406 
L 611.228438 144.406406 
L 626.228438 144.406406 
" style="fill: none; stroke: #9467bd; stroke-linecap: square"/>
    </g>
    <g id="text_27">
     <!-- 70° N -->
     <g transform="translate(638.228438 149.656406) scale(0.15 -0.15)">
      <defs>
       <path id="DejaVuSans-37" d="M 525 4666 
L 3525 4666 
L 3525 4397 
L 1831 0 
L 1172 0 
L 2766 4134 
L 525 4134 
L 525 4666 
z
" transform="scale(0.015625)"/>
      </defs>
      <use xlink:href="#DejaVuSans-37"/>
      <use xlink:href="#DejaVuSans-30" transform="translate(63.623047 0)"/>
      <use xlink:href="#DejaVuSans-b0" transform="translate(127.246094 0)"/>
      <use xlink:href="#DejaVuSans-20" transform="translate(177.246094 0)"/>
      <use xlink:href="#DejaVuSans-4e" transform="translate(209.033203 0)"/>
     </g>
    </g>
    <g id="line2d_50">
     <path d="M 596.228438 166.423594 
L 611.228438 166.423594 
L 626.228438 166.423594 
" style="fill: none; stroke-dasharray: 3.7,1.6; stroke-dashoffset: 0; stroke: #8c564b"/>
    </g>
    <g id="text_28">
     <!-- 80° N -->
     <g transform="translate(638.228438 171.673594) scale(0.15 -0.15)">
      <use xlink:href="#DejaVuSans-38"/>
      <use xlink:href="#DejaVuSans-30" transform="translate(63.623047 0)"/>
      <use xlink:href="#DejaVuSans-b0" transform="translate(127.246094 0)"/>
      <use xlink:href="#DejaVuSans-20" transform="translate(177.246094 0)"/>
      <use xlink:href="#DejaVuSans-4e" transform="translate(209.033203 0)"/>
     </g>
    </g>
   </g>
  </g>
 </g>
 <defs>
  <clipPath id="paab17aeeeb">
   <rect x="53.57" y="36.69" width="640.735" height="344.35"/>
  </clipPath>
 </defs>
</svg>
